<?xml version="1.0" encoding="UTF-8" standalone="no"?>
<!DOCTYPE svg PUBLIC "-//W3C//DTD SVG 1.1//EN"
 "http://www.w3.org/Graphics/SVG/1.1/DTD/svg11.dtd">
<!-- Generated by graphviz version 12.2.1 (20241206.2353)
 -->
<!-- Title: G Pages: 1 -->
<svg width="1204pt" height="522pt"
 viewBox="0.00 0.00 1203.75 522.00" xmlns="http://www.w3.org/2000/svg" xmlns:xlink="http://www.w3.org/1999/xlink">
<g id="graph0" class="graph" transform="scale(1 1) rotate(0) translate(4 518)">
<title>G</title>
<polygon fill="white" stroke="none" points="-4,4 -4,-518 1199.75,-518 1199.75,4 -4,4"/>
<!-- Product -->
<g id="node1" class="node">
<title>Product</title>
<path fill="none" stroke="black" d="M730,-166.5C730,-166.5 848.75,-166.5 848.75,-166.5 854.75,-166.5 860.75,-172.5 860.75,-178.5 860.75,-178.5 860.75,-352 860.75,-352 860.75,-358 854.75,-364 848.75,-364 848.75,-364 730,-364 730,-364 724,-364 718,-358 718,-352 718,-352 718,-178.5 718,-178.5 718,-172.5 724,-166.5 730,-166.5"/>
<text text-anchor="middle" x="789.38" y="-346.7" font-family="Times New Roman,serif" font-size="14.00">Product (77)</text>
<polyline fill="none" stroke="black" points="718,-339.5 860.75,-339.5"/>
<text text-anchor="start" x="726" y="-322.2" font-family="Times New Roman,serif" font-size="14.00">productID: String</text>
<text text-anchor="start" x="726" y="-305.7" font-family="Times New Roman,serif" font-size="14.00">categoryID: String</text>
<text text-anchor="start" x="726" y="-289.2" font-family="Times New Roman,serif" font-size="14.00">supplierID: String</text>
<text text-anchor="start" x="726" y="-272.7" font-family="Times New Roman,serif" font-size="14.00">unitsOnOrder: Long</text>
<text text-anchor="start" x="726" y="-256.2" font-family="Times New Roman,serif" font-size="14.00">quantityPerUnit: String</text>
<text text-anchor="start" x="726" y="-239.7" font-family="Times New Roman,serif" font-size="14.00">reorderLevel: Long</text>
<text text-anchor="start" x="726" y="-223.2" font-family="Times New Roman,serif" font-size="14.00">discontinued: Boolean</text>
<text text-anchor="start" x="726" y="-206.7" font-family="Times New Roman,serif" font-size="14.00">productName: String</text>
<text text-anchor="start" x="726" y="-190.2" font-family="Times New Roman,serif" font-size="14.00">unitsInStock: Long</text>
<text text-anchor="start" x="726" y="-173.7" font-family="Times New Roman,serif" font-size="14.00">unitPrice: Double</text>
</g>
<!-- Category -->
<g id="node2" class="node">
<title>Category</title>
<path fill="none" stroke="black" d="M1071.75,-216C1071.75,-216 1183.75,-216 1183.75,-216 1189.75,-216 1195.75,-222 1195.75,-228 1195.75,-228 1195.75,-302.5 1195.75,-302.5 1195.75,-308.5 1189.75,-314.5 1183.75,-314.5 1183.75,-314.5 1071.75,-314.5 1071.75,-314.5 1065.75,-314.5 1059.75,-308.5 1059.75,-302.5 1059.75,-302.5 1059.75,-228 1059.75,-228 1059.75,-222 1065.75,-216 1071.75,-216"/>
<text text-anchor="middle" x="1127.75" y="-297.2" font-family="Times New Roman,serif" font-size="14.00">Category (8)</text>
<polyline fill="none" stroke="black" points="1059.75,-290 1195.75,-290"/>
<text text-anchor="start" x="1067.75" y="-272.7" font-family="Times New Roman,serif" font-size="14.00">categoryID: String</text>
<text text-anchor="start" x="1067.75" y="-256.2" font-family="Times New Roman,serif" font-size="14.00">categoryName: String</text>
<text text-anchor="start" x="1067.75" y="-239.7" font-family="Times New Roman,serif" font-size="14.00">description: String</text>
<text text-anchor="start" x="1067.75" y="-223.2" font-family="Times New Roman,serif" font-size="14.00">picture: String</text>
</g>
<!-- Product&#45;&gt;Category -->
<g id="edge1" class="edge">
<title>Product&#45;&gt;Category</title>
<path fill="none" stroke="black" d="M876.1,-265.25C925.71,-265.25 988.04,-265.25 1038.13,-265.25"/>
<polygon fill="black" stroke="black" points="871.22,-265.25 861.22,-260.75 865.89,-265.25 861.56,-265.25 861.56,-265.25 861.56,-265.25 865.89,-265.25 861.22,-269.75 871.22,-265.25"/>
<polygon fill="black" stroke="black" points="873.44,-270.25 873.44,-260.25 875.44,-260.25 875.44,-270.25 873.44,-270.25"/>
<polyline fill="none" stroke="black" points="872.44,-265.25 877.44,-265.25"/>
<polygon fill="black" stroke="black" points="1047.97,-268.75 1057.97,-265.25 1047.97,-261.75 1047.97,-268.75"/>
<polygon fill="black" stroke="black" points="1046.47,-260.25 1046.47,-270.25 1044.47,-270.25 1044.47,-260.25 1046.47,-260.25"/>
<polyline fill="none" stroke="black" points="1047.47,-265.25 1042.47,-265.25"/>
<polygon fill="black" stroke="black" points="1041.47,-260.25 1041.47,-270.25 1039.47,-270.25 1039.47,-260.25 1041.47,-260.25"/>
<polyline fill="none" stroke="black" points="1042.47,-265.25 1037.47,-265.25"/>
<text text-anchor="middle" x="960.25" y="-268.45" font-family="Times New Roman,serif" font-size="14.00">:PART_OF (77)</text>
<text text-anchor="start" x="1035.48" y="-251.95" font-family="Times New Roman,serif" font-size="14.00" fill="gray">9.63</text>
<text text-anchor="start" x="860.89" y="-251.95" font-family="Times New Roman,serif" font-size="14.00" fill="gray">1</text>
</g>
<!-- Supplier -->
<g id="node3" class="node">
<title>Supplier</title>
<path fill="none" stroke="black" d="M381.12,-283C381.12,-283 496.88,-283 496.88,-283 502.88,-283 508.88,-289 508.88,-295 508.88,-295 508.88,-501.5 508.88,-501.5 508.88,-507.5 502.88,-513.5 496.88,-513.5 496.88,-513.5 381.12,-513.5 381.12,-513.5 375.12,-513.5 369.12,-507.5 369.12,-501.5 369.12,-501.5 369.12,-295 369.12,-295 369.12,-289 375.12,-283 381.12,-283"/>
<text text-anchor="middle" x="439" y="-496.2" font-family="Times New Roman,serif" font-size="14.00">Supplier (29)</text>
<polyline fill="none" stroke="black" points="369.12,-489 508.88,-489"/>
<text text-anchor="start" x="377.12" y="-471.7" font-family="Times New Roman,serif" font-size="14.00">supplierID: String</text>
<text text-anchor="start" x="377.12" y="-455.2" font-family="Times New Roman,serif" font-size="14.00">postalCode: String</text>
<text text-anchor="start" x="377.12" y="-438.7" font-family="Times New Roman,serif" font-size="14.00">contactTitle: String</text>
<text text-anchor="start" x="377.12" y="-422.2" font-family="Times New Roman,serif" font-size="14.00">contactName: String</text>
<text text-anchor="start" x="377.12" y="-405.7" font-family="Times New Roman,serif" font-size="14.00">companyName: String</text>
<text text-anchor="start" x="377.12" y="-389.2" font-family="Times New Roman,serif" font-size="14.00">city: String</text>
<text text-anchor="start" x="377.12" y="-372.7" font-family="Times New Roman,serif" font-size="14.00">fax: String</text>
<text text-anchor="start" x="377.12" y="-356.2" font-family="Times New Roman,serif" font-size="14.00">address: String</text>
<text text-anchor="start" x="377.12" y="-339.7" font-family="Times New Roman,serif" font-size="14.00">region: String</text>
<text text-anchor="start" x="377.12" y="-323.2" font-family="Times New Roman,serif" font-size="14.00">country: String</text>
<text text-anchor="start" x="377.12" y="-306.7" font-family="Times New Roman,serif" font-size="14.00">homePage: String</text>
<text text-anchor="start" x="377.12" y="-290.2" font-family="Times New Roman,serif" font-size="14.00">phone: String</text>
</g>
<!-- Supplier&#45;&gt;Product -->
<g id="edge2" class="edge">
<title>Supplier&#45;&gt;Product</title>
<path fill="none" stroke="black" d="M518.28,-368.36C569.94,-348.64 637.96,-322.67 692.82,-301.73"/>
<polygon fill="black" stroke="black" points="511.96,-376.13 508.4,-366.79 510.26,-366.07 513.83,-375.42 511.96,-376.13"/>
<polyline fill="none" stroke="black" points="509.24,-371.81 513.92,-370.03"/>
<polygon fill="black" stroke="black" points="516.63,-374.35 513.07,-365 514.93,-364.29 518.5,-373.63 516.63,-374.35"/>
<polyline fill="none" stroke="black" points="513.92,-370.03 518.59,-368.25"/>
<polygon fill="black" stroke="black" points="708.26,-299.58 716.36,-292.75 705.76,-293.04 708.26,-299.58"/>
<polygon fill="black" stroke="black" points="696.89,-300.18 707.84,-300.81 701.87,-298.27 705.92,-296.73 705.92,-296.73 705.92,-296.73 701.87,-298.27 704.63,-292.41 696.89,-300.18"/>
<polygon fill="black" stroke="black" points="693.04,-296.3 696.6,-305.64 694.73,-306.35 691.17,-297.01 693.04,-296.3"/>
<polyline fill="none" stroke="black" points="695.75,-300.61 691.08,-302.39"/>
<text text-anchor="middle" x="613.62" y="-353.53" font-family="Times New Roman,serif" font-size="14.00">:SUPPLIES (77)</text>
<text text-anchor="start" x="711.02" y="-278.91" font-family="Times New Roman,serif" font-size="14.00" fill="gray">1</text>
<text text-anchor="start" x="509.24" y="-358.51" font-family="Times New Roman,serif" font-size="14.00" fill="gray">2.66</text>
</g>
<!-- Customer -->
<g id="node4" class="node">
<title>Customer</title>
<path fill="none" stroke="black" d="M12,-25.25C12,-25.25 127.75,-25.25 127.75,-25.25 133.75,-25.25 139.75,-31.25 139.75,-37.25 139.75,-37.25 139.75,-227.25 139.75,-227.25 139.75,-233.25 133.75,-239.25 127.75,-239.25 127.75,-239.25 12,-239.25 12,-239.25 6,-239.25 0,-233.25 0,-227.25 0,-227.25 0,-37.25 0,-37.25 0,-31.25 6,-25.25 12,-25.25"/>
<text text-anchor="middle" x="69.88" y="-221.95" font-family="Times New Roman,serif" font-size="14.00">Customer (91)</text>
<polyline fill="none" stroke="black" points="0,-214.75 139.75,-214.75"/>
<text text-anchor="start" x="8" y="-197.45" font-family="Times New Roman,serif" font-size="14.00">customerID: String</text>
<text text-anchor="start" x="8" y="-180.95" font-family="Times New Roman,serif" font-size="14.00">postalCode: String</text>
<text text-anchor="start" x="8" y="-164.45" font-family="Times New Roman,serif" font-size="14.00">contactTitle: String</text>
<text text-anchor="start" x="8" y="-147.95" font-family="Times New Roman,serif" font-size="14.00">contactName: String</text>
<text text-anchor="start" x="8" y="-131.45" font-family="Times New Roman,serif" font-size="14.00">companyName: String</text>
<text text-anchor="start" x="8" y="-114.95" font-family="Times New Roman,serif" font-size="14.00">city: String</text>
<text text-anchor="start" x="8" y="-98.45" font-family="Times New Roman,serif" font-size="14.00">fax: String</text>
<text text-anchor="start" x="8" y="-81.95" font-family="Times New Roman,serif" font-size="14.00">address: String</text>
<text text-anchor="start" x="8" y="-65.45" font-family="Times New Roman,serif" font-size="14.00">region: String</text>
<text text-anchor="start" x="8" y="-48.95" font-family="Times New Roman,serif" font-size="14.00">country: String</text>
<text text-anchor="start" x="8" y="-32.45" font-family="Times New Roman,serif" font-size="14.00">phone: String</text>
</g>
<!-- Order -->
<g id="node5" class="node">
<title>Order</title>
<path fill="none" stroke="black" d="M380.75,-0.5C380.75,-0.5 497.25,-0.5 497.25,-0.5 503.25,-0.5 509.25,-6.5 509.25,-12.5 509.25,-12.5 509.25,-252 509.25,-252 509.25,-258 503.25,-264 497.25,-264 497.25,-264 380.75,-264 380.75,-264 374.75,-264 368.75,-258 368.75,-252 368.75,-252 368.75,-12.5 368.75,-12.5 368.75,-6.5 374.75,-0.5 380.75,-0.5"/>
<text text-anchor="middle" x="439" y="-246.7" font-family="Times New Roman,serif" font-size="14.00">Order (830)</text>
<polyline fill="none" stroke="black" points="368.75,-239.5 509.25,-239.5"/>
<text text-anchor="start" x="376.75" y="-222.2" font-family="Times New Roman,serif" font-size="14.00">customerID: String</text>
<text text-anchor="start" x="376.75" y="-205.7" font-family="Times New Roman,serif" font-size="14.00">orderID: String</text>
<text text-anchor="start" x="376.75" y="-189.2" font-family="Times New Roman,serif" font-size="14.00">shippedDate: String</text>
<text text-anchor="start" x="376.75" y="-172.7" font-family="Times New Roman,serif" font-size="14.00">shipName: String</text>
<text text-anchor="start" x="376.75" y="-156.2" font-family="Times New Roman,serif" font-size="14.00">requiredDate: String</text>
<text text-anchor="start" x="376.75" y="-139.7" font-family="Times New Roman,serif" font-size="14.00">shipCity: String</text>
<text text-anchor="start" x="376.75" y="-123.2" font-family="Times New Roman,serif" font-size="14.00">shipCountry: String</text>
<text text-anchor="start" x="376.75" y="-106.7" font-family="Times New Roman,serif" font-size="14.00">shipAddress: String</text>
<text text-anchor="start" x="376.75" y="-90.2" font-family="Times New Roman,serif" font-size="14.00">shipPostalCode: String</text>
<text text-anchor="start" x="376.75" y="-73.7" font-family="Times New Roman,serif" font-size="14.00">shipRegion: String</text>
<text text-anchor="start" x="376.75" y="-57.2" font-family="Times New Roman,serif" font-size="14.00">freight: String</text>
<text text-anchor="start" x="376.75" y="-40.7" font-family="Times New Roman,serif" font-size="14.00">orderDate: String</text>
<text text-anchor="start" x="376.75" y="-24.2" font-family="Times New Roman,serif" font-size="14.00">employeeID: String</text>
<text text-anchor="start" x="376.75" y="-7.7" font-family="Times New Roman,serif" font-size="14.00">shipVia: String</text>
</g>
<!-- Customer&#45;&gt;Order -->
<g id="edge3" class="edge">
<title>Customer&#45;&gt;Order</title>
<path fill="none" stroke="black" d="M153.76,-132.25C209.47,-132.25 283.1,-132.25 341.46,-132.25"/>
<polygon fill="black" stroke="black" points="140.93,-137.25 140.93,-127.25 142.93,-127.25 142.93,-137.25 140.93,-137.25"/>
<polyline fill="none" stroke="black" points="139.93,-132.25 144.93,-132.25"/>
<ellipse fill="none" stroke="black" cx="149.43" cy="-132.25" rx="4" ry="4"/>
<polygon fill="black" stroke="black" points="356.81,-135.75 366.81,-132.25 356.81,-128.75 356.81,-135.75"/>
<polygon fill="black" stroke="black" points="345.97,-132.25 355.97,-136.75 351.31,-132.25 355.64,-132.25 355.64,-132.25 355.64,-132.25 351.31,-132.25 355.97,-127.75 345.97,-132.25"/>
<polygon fill="black" stroke="black" points="343.75,-127.25 343.75,-137.25 341.75,-137.25 341.75,-127.25 343.75,-127.25"/>
<polyline fill="none" stroke="black" points="344.75,-132.25 339.75,-132.25"/>
<text text-anchor="middle" x="254.25" y="-135.45" font-family="Times New Roman,serif" font-size="14.00">:PURCHASED (830)</text>
<text text-anchor="start" x="361.57" y="-118.95" font-family="Times New Roman,serif" font-size="14.00" fill="gray">1</text>
<text text-anchor="start" x="139.93" y="-118.95" font-family="Times New Roman,serif" font-size="14.00" fill="gray">9.33</text>
</g>
<!-- Order&#45;&gt;Product -->
<g id="edge4" class="edge">
<title>Order&#45;&gt;Product</title>
<path fill="none" stroke="black" d="M523.89,-164.28C574.79,-183.71 639.9,-208.57 692.78,-228.75"/>
<polygon fill="black" stroke="black" points="519.32,-162.53 511.58,-154.76 514.33,-160.63 510.29,-159.08 510.29,-159.08 510.29,-159.08 514.33,-160.63 508.37,-163.17 519.32,-162.53"/>
<polygon fill="black" stroke="black" points="519.61,-167.99 523.17,-158.65 525.04,-159.36 521.47,-168.71 519.61,-167.99"/>
<polyline fill="none" stroke="black" points="520.45,-162.97 525.13,-164.75"/>
<polygon fill="black" stroke="black" points="705.64,-237.41 716.23,-237.71 708.13,-230.87 705.64,-237.41"/>
<polygon fill="black" stroke="black" points="696.76,-230.27 704.5,-238.05 701.75,-232.18 705.79,-233.72 705.79,-233.72 705.79,-233.72 701.75,-232.18 707.71,-229.64 696.76,-230.27"/>
<polygon fill="black" stroke="black" points="696.47,-224.81 692.91,-234.15 691.04,-233.44 694.6,-224.1 696.47,-224.81"/>
<polyline fill="none" stroke="black" points="695.62,-229.84 690.95,-228.06"/>
<text text-anchor="middle" x="613.62" y="-220.16" font-family="Times New Roman,serif" font-size="14.00">:ORDERS (2155)</text>
<text text-anchor="start" x="686.89" y="-224.95" font-family="Times New Roman,serif" font-size="14.00" fill="gray">27.99</text>
<text text-anchor="start" x="509.66" y="-145.54" font-family="Times New Roman,serif" font-size="14.00" fill="gray">2.6</text>
</g>
</g>
</svg>
