<?xml version="1.0" encoding="UTF-8" standalone="no"?>
<!DOCTYPE svg PUBLIC "-//W3C//DTD SVG 1.1//EN"
 "http://www.w3.org/Graphics/SVG/1.1/DTD/svg11.dtd">
<!-- Generated by graphviz version 9.0.0 (20230911.1827)
 -->
<!-- Title: G Pages: 1 -->
<svg width="777pt" height="422pt"
 viewBox="0.00 0.00 776.75 422.12" xmlns="http://www.w3.org/2000/svg" xmlns:xlink="http://www.w3.org/1999/xlink">
<g id="graph0" class="graph" transform="scale(1 1) rotate(0) translate(4 418.12)">
<title>G</title>
<polygon fill="white" stroke="none" points="-4,4 -4,-418.12 772.75,-418.12 772.75,4 -4,4"/>
<!-- Reader -->
<g id="node1" class="node">
<title>Reader</title>
<path fill="none" stroke="black" d="M325,-350.38C325,-350.38 403.25,-350.38 403.25,-350.38 409.25,-350.38 415.25,-356.38 415.25,-362.38 415.25,-362.38 415.25,-401.62 415.25,-401.62 415.25,-407.62 409.25,-413.62 403.25,-413.62 403.25,-413.62 325,-413.62 325,-413.62 319,-413.62 313,-407.62 313,-401.62 313,-401.62 313,-362.38 313,-362.38 313,-356.38 319,-350.38 325,-350.38"/>
<text text-anchor="middle" x="364.12" y="-396.32" font-family="Times New Roman,serif" font-size="14.00">Reader (14113)</text>
<polyline fill="none" stroke="black" points="313,-389.88 415.25,-389.88"/>
<text text-anchor="start" x="321" y="-372.57" font-family="Times New Roman,serif" font-size="14.00">id: Long</text>
<text text-anchor="start" x="321" y="-356.82" font-family="Times New Roman,serif" font-size="14.00">name: String</text>
</g>
<!-- Section -->
<g id="node3" class="node">
<title>Section</title>
<path fill="none" stroke="black" d="M644,-264C644,-264 756.75,-264 756.75,-264 762.75,-264 768.75,-270 768.75,-276 768.75,-276 768.75,-394 768.75,-394 768.75,-400 762.75,-406 756.75,-406 756.75,-406 644,-406 644,-406 638,-406 632,-400 632,-394 632,-394 632,-276 632,-276 632,-270 638,-264 644,-264"/>
<text text-anchor="middle" x="700.38" y="-388.7" font-family="Times New Roman,serif" font-size="14.00">Section (482700)</text>
<polyline fill="none" stroke="black" points="632,-382.25 768.75,-382.25"/>
<text text-anchor="start" x="640" y="-364.95" font-family="Times New Roman,serif" font-size="14.00">id: Long</text>
<text text-anchor="start" x="640" y="-349.2" font-family="Times New Roman,serif" font-size="14.00">sectionNumber: Long</text>
<text text-anchor="start" x="640" y="-333.45" font-family="Times New Roman,serif" font-size="14.00">title: String</text>
<text text-anchor="start" x="640" y="-317.7" font-family="Times New Roman,serif" font-size="14.00">listenUrl: String</text>
<text text-anchor="start" x="640" y="-301.95" font-family="Times New Roman,serif" font-size="14.00">language: String</text>
<text text-anchor="start" x="640" y="-286.2" font-family="Times New Roman,serif" font-size="14.00">playtime: Long</text>
<text text-anchor="start" x="640" y="-270.45" font-family="Times New Roman,serif" font-size="14.00">fileName: String</text>
</g>
<!-- Reader&#45;&gt;Section -->
<g id="edge5" class="edge">
<title>Reader&#45;&gt;Section</title>
<path fill="none" stroke="black" d="M415.53,-374.91C469.89,-367.27 557.17,-355 620.61,-346.08"/>
<polygon fill="black" stroke="black" points="620.86,-349.58 630.27,-344.72 619.88,-342.64 620.86,-349.58"/>
<text text-anchor="middle" x="538.25" y="-370.45" font-family="Times New Roman,serif" font-size="14.00">:READ (518145)</text>
<text text-anchor="middle" x="619.77" y="-331.21" font-family="Times New Roman,serif" font-size="14.00">1.07</text>
<text text-anchor="middle" x="430.9" y="-361.61" font-family="Times New Roman,serif" font-size="14.00">36.71</text>
</g>
<!-- Author -->
<g id="node2" class="node">
<title>Author</title>
<path fill="none" stroke="black" d="M12,-110.75C12,-110.75 99.25,-110.75 99.25,-110.75 105.25,-110.75 111.25,-116.75 111.25,-122.75 111.25,-122.75 111.25,-209.25 111.25,-209.25 111.25,-215.25 105.25,-221.25 99.25,-221.25 99.25,-221.25 12,-221.25 12,-221.25 6,-221.25 0,-215.25 0,-209.25 0,-209.25 0,-122.75 0,-122.75 0,-116.75 6,-110.75 12,-110.75"/>
<text text-anchor="middle" x="55.62" y="-203.95" font-family="Times New Roman,serif" font-size="14.00">Author (7813)</text>
<polyline fill="none" stroke="black" points="0,-197.5 111.25,-197.5"/>
<text text-anchor="start" x="8" y="-180.2" font-family="Times New Roman,serif" font-size="14.00">id: Long</text>
<text text-anchor="start" x="8" y="-164.45" font-family="Times New Roman,serif" font-size="14.00">firstName: String</text>
<text text-anchor="start" x="8" y="-148.7" font-family="Times New Roman,serif" font-size="14.00">lastName: String</text>
<text text-anchor="start" x="8" y="-132.95" font-family="Times New Roman,serif" font-size="14.00">birthDate: String</text>
<text text-anchor="start" x="8" y="-117.2" font-family="Times New Roman,serif" font-size="14.00">deathDate: String</text>
</g>
<!-- Book -->
<g id="node5" class="node">
<title>Book</title>
<path fill="none" stroke="black" d="M295.75,-0.5C295.75,-0.5 432.5,-0.5 432.5,-0.5 438.5,-0.5 444.5,-6.5 444.5,-12.5 444.5,-12.5 444.5,-319.5 444.5,-319.5 444.5,-325.5 438.5,-331.5 432.5,-331.5 432.5,-331.5 295.75,-331.5 295.75,-331.5 289.75,-331.5 283.75,-325.5 283.75,-319.5 283.75,-319.5 283.75,-12.5 283.75,-12.5 283.75,-6.5 289.75,-0.5 295.75,-0.5"/>
<text text-anchor="middle" x="364.12" y="-314.2" font-family="Times New Roman,serif" font-size="14.00">Book (20745)</text>
<polyline fill="none" stroke="black" points="283.75,-307.75 444.5,-307.75"/>
<text text-anchor="start" x="291.75" y="-290.45" font-family="Times New Roman,serif" font-size="14.00">id: Long</text>
<text text-anchor="start" x="291.75" y="-274.7" font-family="Times New Roman,serif" font-size="14.00">title: String</text>
<text text-anchor="start" x="291.75" y="-258.95" font-family="Times New Roman,serif" font-size="14.00">language: String</text>
<text text-anchor="start" x="291.75" y="-243.2" font-family="Times New Roman,serif" font-size="14.00">description: String</text>
<text text-anchor="start" x="291.75" y="-227.45" font-family="Times New Roman,serif" font-size="14.00">urlTextSource: String</text>
<text text-anchor="start" x="291.75" y="-211.7" font-family="Times New Roman,serif" font-size="14.00">copyrightYear: Long</text>
<text text-anchor="start" x="291.75" y="-195.95" font-family="Times New Roman,serif" font-size="14.00">numSections: Long</text>
<text text-anchor="start" x="291.75" y="-180.2" font-family="Times New Roman,serif" font-size="14.00">urlRss: String</text>
<text text-anchor="start" x="291.75" y="-164.45" font-family="Times New Roman,serif" font-size="14.00">urlZipFile: String</text>
<text text-anchor="start" x="291.75" y="-148.7" font-family="Times New Roman,serif" font-size="14.00">totaltimesecs: Long</text>
<text text-anchor="start" x="291.75" y="-132.95" font-family="Times New Roman,serif" font-size="14.00">coverartJpg: String</text>
<text text-anchor="start" x="291.75" y="-117.2" font-family="Times New Roman,serif" font-size="14.00">urlProject: String</text>
<text text-anchor="start" x="291.75" y="-101.45" font-family="Times New Roman,serif" font-size="14.00">idIarchive: String</text>
<text text-anchor="start" x="291.75" y="-85.7" font-family="Times New Roman,serif" font-size="14.00">coverartThumbnail: String</text>
<text text-anchor="start" x="291.75" y="-69.95" font-family="Times New Roman,serif" font-size="14.00">coverartPdf: String</text>
<text text-anchor="start" x="291.75" y="-54.2" font-family="Times New Roman,serif" font-size="14.00">urlLibrivox: String</text>
<text text-anchor="start" x="291.75" y="-38.45" font-family="Times New Roman,serif" font-size="14.00">totaltime: String</text>
<text text-anchor="start" x="291.75" y="-22.7" font-family="Times New Roman,serif" font-size="14.00">views: Long</text>
<text text-anchor="start" x="291.75" y="-6.95" font-family="Times New Roman,serif" font-size="14.00">dateUploaded: DateTime</text>
</g>
<!-- Author&#45;&gt;Book -->
<g id="edge1" class="edge">
<title>Author&#45;&gt;Book</title>
<path fill="none" stroke="black" d="M111.42,-166C156.02,-166 219.9,-166 272.15,-166"/>
<polygon fill="black" stroke="black" points="271.94,-169.5 281.94,-166 271.94,-162.5 271.94,-169.5"/>
<text text-anchor="middle" x="197.5" y="-168.45" font-family="Times New Roman,serif" font-size="14.00">:AUTHOR (21983)</text>
<text text-anchor="middle" x="271.45" y="-168.45" font-family="Times New Roman,serif" font-size="14.00">1.06</text>
<text text-anchor="middle" x="123.42" y="-168.45" font-family="Times New Roman,serif" font-size="14.00">2.81</text>
</g>
<!-- Author&#45;&gt;Book -->
<g id="edge4" class="edge">
<title>Author&#45;&gt;Book</title>
<path fill="none" stroke="black" d="M111.43,-149.45C117.4,-148.14 123.42,-147.03 129.25,-146.25 189.38,-138.22 205.39,-140.19 265.75,-146.25 267.82,-146.46 269.9,-146.69 272.01,-146.94"/>
<polygon fill="black" stroke="black" points="271.47,-150.4 281.85,-148.28 272.41,-143.46 271.47,-150.4"/>
<text text-anchor="middle" x="197.5" y="-149.45" font-family="Times New Roman,serif" font-size="14.00">:TRANSLATOR (2405)</text>
<text text-anchor="middle" x="271.35" y="-135.18" font-family="Times New Roman,serif" font-size="14.00">0.12</text>
<text text-anchor="middle" x="123.43" y="-136.15" font-family="Times New Roman,serif" font-size="14.00">0.31</text>
</g>
<!-- Genre -->
<g id="node4" class="node">
<title>Genre</title>
<path fill="none" stroke="black" d="M669.88,-134.38C669.88,-134.38 730.88,-134.38 730.88,-134.38 736.88,-134.38 742.88,-140.38 742.88,-146.38 742.88,-146.38 742.88,-185.62 742.88,-185.62 742.88,-191.62 736.88,-197.62 730.88,-197.62 730.88,-197.62 669.88,-197.62 669.88,-197.62 663.88,-197.62 657.88,-191.62 657.88,-185.62 657.88,-185.62 657.88,-146.38 657.88,-146.38 657.88,-140.38 663.88,-134.38 669.88,-134.38"/>
<text text-anchor="middle" x="700.38" y="-180.32" font-family="Times New Roman,serif" font-size="14.00">Genre (146)</text>
<polyline fill="none" stroke="black" points="657.88,-173.88 742.88,-173.88"/>
<text text-anchor="start" x="665.88" y="-156.57" font-family="Times New Roman,serif" font-size="14.00">id: Long</text>
<text text-anchor="start" x="665.88" y="-140.82" font-family="Times New Roman,serif" font-size="14.00">name: String</text>
</g>
<!-- Book&#45;&gt;Section -->
<g id="edge2" class="edge">
<title>Book&#45;&gt;Section</title>
<path fill="none" stroke="black" d="M444.76,-206.26C498.28,-233.32 568.46,-268.81 621.58,-295.67"/>
<polygon fill="black" stroke="black" points="619.78,-298.68 630.28,-300.07 622.94,-292.43 619.78,-298.68"/>
<text text-anchor="middle" x="538.25" y="-291.45" font-family="Times New Roman,serif" font-size="14.00">:HAS_SECTION (482675)</text>
<text text-anchor="middle" x="628.26" y="-287.45" font-family="Times New Roman,serif" font-size="14.00">1</text>
<text text-anchor="middle" x="460.14" y="-192.96" font-family="Times New Roman,serif" font-size="14.00">23.27</text>
</g>
<!-- Book&#45;&gt;Genre -->
<g id="edge3" class="edge">
<title>Book&#45;&gt;Genre</title>
<path fill="none" stroke="black" d="M444.76,-166C507.01,-166 591.8,-166 646.07,-166"/>
<polygon fill="black" stroke="black" points="645.99,-169.5 655.99,-166 645.99,-162.5 645.99,-169.5"/>
<text text-anchor="middle" x="538.25" y="-168.45" font-family="Times New Roman,serif" font-size="14.00">:GENRE (31870)</text>
<text text-anchor="middle" x="638.76" y="-152.7" font-family="Times New Roman,serif" font-size="14.00">218.29</text>
<text text-anchor="middle" x="456.76" y="-152.7" font-family="Times New Roman,serif" font-size="14.00">1.54</text>
</g>
</g>
</svg>
